<?xml version="1.0" encoding="iso-8859-1"?>
<!-- Generator: Adobe Illustrator 30.2.1, SVG Export Plug-In . SVG Version: 9.03 Build 0)  -->
<svg version="1.0" id="Layer_1" xmlns="http://www.w3.org/2000/svg" xmlns:xlink="http://www.w3.org/1999/xlink" x="0px" y="0px"
	 viewBox="0 0 22 22" style="enable-background:new 0 0 22 22;" xml:space="preserve">
<circle style="fill:#FFFFFF;" cx="8.5" cy="14.5" r="0.5"/>
<path style="fill:#FFFFFF;" d="M7.068,15.49c-0.008-0.025-0.017-0.049-0.023-0.074C7.016,15.281,7,15.143,7,15
	c0-0.854,0.538-1.578,1.291-1.865c-1.677-0.571-3.464,0.819-3.296,2.534c-0.09,1.471,2.186,3.199,4.004,1.834
	c0.187-0.152,0.463-0.387,0.557-0.592C9.378,16.964,9.194,17,9,17C8.065,17,7.287,16.356,7.068,15.49z"/>
<circle style="fill:#FFFFFF;" cx="15.5" cy="14.5" r="0.5"/>
<path style="fill:#FFFFFF;" d="M14.068,15.49c-0.008-0.025-0.017-0.049-0.023-0.074C14.016,15.281,14,15.143,14,15
	c0-0.854,0.538-1.578,1.291-1.865c-1.677-0.571-3.464,0.819-3.296,2.534c-0.09,1.471,2.186,3.199,4.004,1.834
	c0.187-0.152,0.463-0.387,0.557-0.592C16.378,16.964,16.194,17,16,17C15.065,17,14.287,16.356,14.068,15.49z"/>
<path style="fill:#FFFFFF;" d="M17.959,6.664c-0.391,0.155-1.464,0.697-2.04,0.992c-0.184,0.094-0.405-0.018-0.432-0.223
	c-0.077-0.574-0.215-1.558-0.274-1.741c-0.048-0.151-0.2-0.239-0.354-0.202c-0.343,0.082-1.301,0.873-1.725,1.234
	c-0.119,0.101-0.293,0.092-0.403-0.019l-1.471-2.471C11.188,4.163,11.094,4.14,11,4.148c-0.094-0.008-0.188,0.015-0.259,0.087
	L9.269,6.706c-0.11,0.11-0.284,0.12-0.403,0.019C8.442,6.364,7.485,5.573,7.141,5.491C6.987,5.454,6.835,5.542,6.787,5.693
	C6.729,5.876,6.591,6.86,6.513,7.434C6.486,7.639,6.265,7.75,6.081,7.656c-0.576-0.295-1.648-0.837-2.04-0.992
	C3.876,6.599,3.706,6.738,3.74,6.912c0.205,1.059,0.862,4.39,1.001,4.321C6.202,10.509,8.477,10,10.975,10
	c0.008,0,0.017,0.001,0.025,0.001S11.017,10,11.025,10c2.498,0,4.773,0.509,6.234,1.233c0.14,0.069,0.796-3.262,1.001-4.321
	C18.294,6.738,18.124,6.599,17.959,6.664z M5.5,10C5.224,10,5,9.776,5,9.5C5,9.224,5.224,9,5.5,9S6,9.224,6,9.5
	C6,9.776,5.776,10,5.5,10z M7.5,9C7.224,9,7,8.776,7,8.5C7,8.224,7.224,8,7.5,8S8,8.224,8,8.5C8,8.776,7.776,9,7.5,9z M11,9
	c-0.552,0-1-0.672-1-1.5S10.448,6,11,6s1,0.672,1,1.5S11.552,9,11,9z M14.5,9C14.224,9,14,8.776,14,8.5C14,8.224,14.224,8,14.5,8
	S15,8.224,15,8.5C15,8.776,14.776,9,14.5,9z M16.5,10C16.224,10,16,9.776,16,9.5C16,9.224,16.224,9,16.5,9S17,9.224,17,9.5
	C17,9.776,16.776,10,16.5,10z"/>
</svg>
